<svg id="Layer_1" data-name="Layer 1" xmlns="http://www.w3.org/2000/svg" viewBox="0 0 472.04 155.27"><title>Artboard 10</title><path d="M425,155.27a12.52,12.52,0,0,1-12.52-12.52V79.05a12.52,12.52,0,0,1,25,0v63.69A12.52,12.52,0,0,1,425,155.27Z"/><path d="M459.5,155.27A12.52,12.52,0,0,1,447,142.75V79.05a12.52,12.52,0,0,1,25,0v63.69A12.52,12.52,0,0,1,459.5,155.27Z"/><path d="M361.81,91.58a19.32,19.32,0,1,1-19.32,19.32V12.77A12.72,12.72,0,0,0,329.72,0a12.52,12.52,0,0,0-12.28,12.52v97.89c0,24.48,19.63,44.72,44.11,44.86a44.37,44.37,0,1,0,.27-88.74h-.39a1.79,1.79,0,0,0-1.79,1.79V89.79a1.79,1.79,0,0,0,1.79,1.79Z"/><path d="M301.22,82.93a44.21,44.21,0,0,0-34.44-16.39H254.42A1.79,1.79,0,0,0,253,69.46,64.91,64.91,0,0,1,264.7,90.37a1.78,1.78,0,0,0,1.69,1.21h.39a19.36,19.36,0,0,1,18.87,23.62,18.8,18.8,0,0,1-14.57,14.57,19.36,19.36,0,0,1-23.62-18.87,44.27,44.27,0,0,0-76.38-30.58,44.8,44.8,0,0,0-12.36,31V142.5a12.72,12.72,0,0,0,12.77,12.77,12.52,12.52,0,0,0,12.28-12.52V111.29c0-10.52,8.36-19.35,18.64-19.7a19.32,19.32,0,0,1,20,19.31,44.38,44.38,0,1,0,78.81-28Z"/><path d="M152.41,110.73a44.34,44.34,0,0,0-44.36-44.2H95.7a1.79,1.79,0,0,0-1.38,2.92A64.91,64.91,0,0,1,106,90.37a1.78,1.78,0,0,0,1.69,1.21h.39a19.26,19.26,0,0,1,15,7.15,19.06,19.06,0,0,1,4.31,11.93c0,.08,0,.16,0,.24v.28a21.17,21.17,0,0,1-.44,4,18.8,18.8,0,0,1-14.57,14.57A19.36,19.36,0,0,1,88.74,110.9,44.37,44.37,0,0,0,42.84,66.56,43.87,43.87,0,0,0,12.36,80.32,44.8,44.8,0,0,0,0,111.29V142.5a12.72,12.72,0,0,0,12.77,12.77A12.52,12.52,0,0,0,25,142.75V111.29c0-10.52,8.36-19.35,18.64-19.7a19.32,19.32,0,0,1,20,19.31,44.58,44.58,0,0,0,65.88,38.93,12.52,12.52,0,0,0,22.85-7.09V110.9C152.42,110.84,152.41,110.79,152.41,110.73Z"/><path d="M471.91,14.26a16.4,16.4,0,0,0-29.64-7.35,16.4,16.4,0,1,0-25,21.07h0L438.4,49.4a5.57,5.57,0,0,0,7.73,0L467.26,28h0A16.39,16.39,0,0,0,471.91,14.26Z"/></svg>